<?xml version="1.0" standalone="no"?>
<!DOCTYPE svg PUBLIC "-//W3C//DTD SVG 20010904//EN"
 "http://www.w3.org/TR/2001/REC-SVG-20010904/DTD/svg10.dtd">
<svg version="1.0" xmlns="http://www.w3.org/2000/svg"
 width="355.000000pt" height="355.000000pt" viewBox="0 0 355.000000 355.000000"
 preserveAspectRatio="xMidYMid meet">
<metadata>
Created by potrace 1.14, written by Peter Selinger 2001-2017
</metadata>
<g transform="translate(0.000000,355.000000) scale(0.100000,-0.100000)"
fill="#000000" stroke="none">
<path d="M1737 3544 c-1 -1 -40 -4 -87 -7 -226 -16 -433 -69 -635 -166 -366
-175 -656 -461 -834 -823 -44 -91 -116 -284 -127 -342 -2 -12 -6 -32 -9 -46
-37 -166 -52 -424 -34 -575 41 -350 164 -650 377 -916 288 -361 697 -592 1157
-656 22 -3 119 -6 216 -8 150 -2 197 1 312 21 176 31 319 78 492 164 548 272
912 804 972 1418 12 124 6 334 -12 423 -3 13 -7 38 -10 56 -17 130 -101 372
-176 513 -77 142 -240 362 -322 433 -12 10 -42 37 -67 61 -259 241 -664 415
-1029 442 -80 6 -181 10 -184 8z m228 -109 c16 -3 33 -12 37 -18 4 -7 74 -127
156 -267 l149 -255 -880 -3 c-484 -1 -883 0 -886 3 -13 13 194 189 321 272
215 141 462 235 704 267 97 12 340 13 399 1z m335 -75 c253 -83 462 -212 650
-400 106 -105 146 -153 214 -256 48 -70 156 -270 156 -286 0 -6 -214 -386
-273 -485 l-31 -51 -231 396 c-127 219 -265 451 -305 517 -40 66 -129 217
-197 335 -69 118 -134 230 -146 249 l-20 33 34 -7 c19 -4 86 -24 149 -45z
m-1243 -574 c-3 -8 -57 -104 -120 -213 -131 -227 -511 -883 -537 -928 -10 -16
-57 -97 -105 -180 -47 -82 -94 -161 -102 -174 l-16 -25 -9 25 c-14 38 -55 237
-63 305 -19 179 -5 386 40 570 51 206 137 390 273 587 l33 47 306 0 c259 0
304 -2 300 -14z m1517 -331 c232 -388 200 -334 281 -469 36 -59 65 -110 65
-113 0 -3 9 -16 20 -30 11 -14 20 -32 20 -40 0 -7 -46 -93 -102 -191 -56 -97
-108 -188 -115 -202 -8 -14 -96 -167 -196 -340 l-183 -315 -575 -1 -576 -1
-20 31 c-12 17 -97 162 -190 321 -316 540 -375 640 -383 649 -10 10 -14 3 235
441 78 138 184 325 236 417 52 92 101 169 109 170 8 2 276 3 595 3 l582 0 197
-330z m835 -333 c31 -149 32 -157 36 -317 5 -234 -30 -439 -111 -650 -42 -109
-117 -252 -176 -334 l-43 -60 -317 -1 c-175 0 -318 2 -318 4 0 2 55 98 121
213 67 114 132 226 144 248 34 59 236 408 440 758 l179 308 13 -36 c7 -20 21
-80 32 -133z m-2673 -777 c103 -176 292 -504 421 -730 130 -226 245 -425 256
-444 l20 -34 -39 7 c-73 13 -248 76 -349 125 -99 49 -243 139 -320 200 -183
148 -352 360 -456 574 l-50 103 157 268 c86 147 160 264 165 259 4 -4 92 -152
195 -328z m2294 -674 c0 -12 -164 -163 -239 -220 -239 -182 -542 -307 -819
-338 -85 -10 -358 -10 -393 -1 -21 6 -56 59 -184 280 -87 150 -160 276 -162
280 -2 3 402 6 897 6 495 0 900 -3 900 -7z"/>
<path d="M1460 2232 c-60 -6 -70 -24 -70 -119 l0 -84 57 3 57 3 2 34 c1 18 8
37 15 41 7 5 54 8 106 8 l93 -1 0 -398 0 -399 65 0 65 0 0 400 0 400 93 -1
c50 -1 98 -6 105 -11 6 -6 12 -26 12 -44 l0 -34 58 0 58 0 -1 86 c-2 95 -12
113 -64 115 -84 3 -622 3 -651 1z"/>
</g>
</svg>
